<svg xmlns="http://www.w3.org/2000/svg" width="375" viewBox="0 0 375 375" height="375" version="1.0"><defs><clipPath id="a"><path d="M 3 17.945312 L 371.882812 17.945312 L 371.882812 337.445312 L 3 337.445312 Z M 3 17.945312"/></clipPath><clipPath id="b"><path d="M 82.632812 72.859375 L 292.632812 72.859375 L 292.632812 282.859375 L 82.632812 282.859375 Z M 82.632812 72.859375"/></clipPath></defs><g clip-path="url(#a)"><path fill="#008037" d="M 371.738281 177.695312 L 279.539062 337.445312 L 95.230469 337.445312 L 3.03125 177.695312 L 95.230469 17.945312 L 279.539062 17.945312 Z M 371.738281 177.695312"/></g><path fill="#7ED957" d="M 95.554688 313.613281 L 23.84375 189.328125 C 19.699219 182.171875 19.699219 173.304688 23.84375 166.066406 L 95.554688 41.78125 C 99.699219 34.621094 107.34375 30.148438 115.714844 30.148438 L 259.132812 30.148438 C 267.425781 30.148438 275.070312 34.539062 279.296875 41.78125 L 351.003906 166.066406 C 355.152344 173.222656 355.152344 182.089844 351.003906 189.328125 L 279.296875 313.613281 C 275.148438 320.773438 267.507812 325.246094 259.132812 325.246094 L 115.636719 325.246094 C 107.34375 325.246094 99.699219 320.773438 95.554688 313.613281 Z M 95.554688 313.613281"/><path fill="#7ED957" d="M 347.101562 168.34375 L 275.3125 44.058594 C 271.980469 38.28125 265.71875 34.703125 259.050781 34.703125 L 115.636719 34.703125 C 108.96875 34.703125 102.707031 38.28125 99.375 44.058594 L 27.667969 168.34375 C 25.960938 171.269531 25.144531 174.523438 25.144531 177.695312 C 25.144531 180.871094 25.960938 184.203125 27.667969 187.050781 L 99.375 311.335938 C 102.707031 317.113281 108.96875 320.691406 115.636719 320.691406 L 259.050781 320.691406 C 265.71875 320.691406 271.980469 317.113281 275.3125 311.335938 L 347.101562 187.050781 C 348.726562 184.203125 349.542969 180.949219 349.542969 177.695312 C 349.542969 174.445312 348.726562 171.191406 347.101562 168.34375 Z M 346.371094 186.644531 L 274.660156 310.929688 C 271.492188 316.460938 265.476562 319.878906 259.132812 319.878906 L 115.636719 319.878906 C 109.210938 319.878906 103.277344 316.460938 100.105469 310.929688 L 28.398438 186.644531 C 26.773438 183.878906 26.039062 180.789062 26.039062 177.695312 C 26.039062 174.605469 26.855469 171.515625 28.398438 168.75 L 100.105469 44.464844 C 103.277344 38.933594 109.292969 35.515625 115.636719 35.515625 L 259.050781 35.515625 C 265.476562 35.515625 271.410156 38.933594 274.582031 44.464844 L 346.371094 168.75 C 347.996094 171.515625 348.726562 174.605469 348.726562 177.695312 C 348.726562 180.789062 347.914062 183.878906 346.371094 186.644531 Z M 346.371094 186.644531"/><g clip-path="url(#b)"><path d="M 219.132812 130.609375 L 219.132812 72.859375 L 156.132812 72.859375 L 156.132812 130.609375 L 187.632812 162.109375 Z M 140.382812 146.359375 L 82.632812 146.359375 L 82.632812 209.359375 L 140.382812 209.359375 L 171.882812 177.859375 Z M 156.132812 225.109375 L 156.132812 282.859375 L 219.132812 282.859375 L 219.132812 225.109375 L 187.632812 193.609375 Z M 234.882812 146.359375 L 203.382812 177.859375 L 234.882812 209.359375 L 292.632812 209.359375 L 292.632812 146.359375 Z M 234.882812 146.359375"/></g></svg>