<svg xmlns="http://www.w3.org/2000/svg" xmlns:xlink="http://www.w3.org/1999/xlink" width="375" viewBox="0 0 375 375" height="375" version="1.0"><defs><g id="c"><path d="M 0 0 L 0 -46.3125 L 40.53125 -46.3125 L 40.53125 -40.53125 L 46.3125 -40.53125 L 46.3125 -5.796875 L 40.53125 -5.796875 L 40.53125 0 Z M 34.734375 -5.796875 L 34.734375 -11.578125 L 40.53125 -11.578125 L 40.53125 -34.734375 L 34.734375 -34.734375 L 34.734375 -40.53125 L 5.796875 -40.53125 L 5.796875 -5.796875 Z M 17.375 -11.578125 L 17.375 -34.734375 L 28.953125 -34.734375 L 28.953125 -11.578125 Z M 17.375 -11.578125"/></g><g id="d"><path d="M 11.578125 0 L 11.578125 -46.3125 L 34.734375 -46.3125 L 34.734375 0 Z M 28.953125 -5.796875 L 28.953125 -40.53125 L 17.375 -40.53125 L 17.375 -5.796875 Z M 28.953125 -5.796875"/></g><g id="e"><path d="M 0 0 L 0 -46.3125 L 46.3125 -46.3125 L 46.3125 0 Z M 17.375 -5.796875 L 17.375 -17.375 L 23.15625 -17.375 L 23.15625 -11.578125 L 28.953125 -11.578125 L 28.953125 -5.796875 L 40.53125 -5.796875 L 40.53125 -40.53125 L 28.953125 -40.53125 L 28.953125 -28.953125 L 23.15625 -28.953125 L 23.15625 -34.734375 L 17.375 -34.734375 L 17.375 -40.53125 L 5.796875 -40.53125 L 5.796875 -5.796875 Z M 17.375 -5.796875"/></g><g id="f"><path d="M 5.796875 0 L 5.796875 -5.796875 L 0 -5.796875 L 0 -40.53125 L 5.796875 -40.53125 L 5.796875 -46.3125 L 40.53125 -46.3125 L 40.53125 -40.53125 L 46.3125 -40.53125 L 46.3125 -5.796875 L 40.53125 -5.796875 L 40.53125 0 Z M 34.734375 -5.796875 L 34.734375 -11.578125 L 40.53125 -11.578125 L 40.53125 -34.734375 L 34.734375 -34.734375 L 34.734375 -40.53125 L 11.578125 -40.53125 L 11.578125 -34.734375 L 5.796875 -34.734375 L 5.796875 -11.578125 L 11.578125 -11.578125 L 11.578125 -5.796875 Z M 17.375 -11.578125 L 17.375 -34.734375 L 28.953125 -34.734375 L 28.953125 -11.578125 Z M 17.375 -11.578125"/></g><g id="g"><path d="M 5.796875 0 L 5.796875 -5.796875 L 0 -5.796875 L 0 -40.53125 L 5.796875 -40.53125 L 5.796875 -46.3125 L 40.53125 -46.3125 L 40.53125 -40.53125 L 46.3125 -40.53125 L 46.3125 -5.796875 L 40.53125 -5.796875 L 40.53125 0 Z M 34.734375 -5.796875 L 34.734375 -11.578125 L 40.53125 -11.578125 L 40.53125 -23.15625 L 23.15625 -23.15625 L 23.15625 -17.375 L 28.953125 -17.375 L 28.953125 -11.578125 L 17.375 -11.578125 L 17.375 -34.734375 L 28.953125 -34.734375 L 28.953125 -28.953125 L 40.53125 -28.953125 L 40.53125 -34.734375 L 34.734375 -34.734375 L 34.734375 -40.53125 L 11.578125 -40.53125 L 11.578125 -34.734375 L 5.796875 -34.734375 L 5.796875 -11.578125 L 11.578125 -11.578125 L 11.578125 -5.796875 Z M 34.734375 -5.796875"/></g><g id="h"><path d="M 0 0 L 0 -40.53125 L 5.796875 -40.53125 L 5.796875 -46.3125 L 40.53125 -46.3125 L 40.53125 -40.53125 L 46.3125 -40.53125 L 46.3125 0 Z M 17.375 -5.796875 L 17.375 -11.578125 L 28.953125 -11.578125 L 28.953125 -5.796875 L 40.53125 -5.796875 L 40.53125 -34.734375 L 34.734375 -34.734375 L 34.734375 -40.53125 L 11.578125 -40.53125 L 11.578125 -34.734375 L 5.796875 -34.734375 L 5.796875 -5.796875 Z M 17.375 -23.15625 L 17.375 -34.734375 L 28.953125 -34.734375 L 28.953125 -23.15625 Z M 17.375 -23.15625"/></g><g id="i"><path d="M 0 0 L 0 -46.3125 L 23.15625 -46.3125 L 23.15625 -40.53125 L 28.953125 -40.53125 L 28.953125 -46.3125 L 46.3125 -46.3125 L 46.3125 0 Z M 17.375 -5.796875 L 17.375 -17.375 L 23.15625 -17.375 L 23.15625 -11.578125 L 28.953125 -11.578125 L 28.953125 -17.375 L 34.734375 -17.375 L 34.734375 -5.796875 L 40.53125 -5.796875 L 40.53125 -40.53125 L 34.734375 -40.53125 L 34.734375 -34.734375 L 28.953125 -34.734375 L 28.953125 -28.953125 L 23.15625 -28.953125 L 23.15625 -34.734375 L 17.375 -34.734375 L 17.375 -40.53125 L 5.796875 -40.53125 L 5.796875 -5.796875 Z M 17.375 -5.796875"/></g><g id="j"><path d="M 0 0 L 0 -46.3125 L 46.3125 -46.3125 L 46.3125 -28.953125 L 40.53125 -28.953125 L 40.53125 -17.375 L 46.3125 -17.375 L 46.3125 0 Z M 40.53125 -5.796875 L 40.53125 -11.578125 L 17.375 -11.578125 L 17.375 -23.15625 L 34.734375 -23.15625 L 34.734375 -28.953125 L 17.375 -28.953125 L 17.375 -34.734375 L 40.53125 -34.734375 L 40.53125 -40.53125 L 5.796875 -40.53125 L 5.796875 -5.796875 Z M 40.53125 -5.796875"/></g><g id="k"><path d="M 6.296875 -4.5 C 6.804688 -4.351562 7.195312 -4.09375 7.46875 -3.71875 C 7.75 -3.351562 7.890625 -2.90625 7.890625 -2.375 C 7.890625 -1.632812 7.625 -1.050781 7.09375 -0.625 C 6.5625 -0.207031 5.828125 0 4.890625 0 L 1.703125 0 C 1.460938 0 1.273438 -0.0625 1.140625 -0.1875 C 1.003906 -0.320312 0.9375 -0.507812 0.9375 -0.75 L 0.9375 -7.953125 C 0.9375 -8.191406 1.003906 -8.378906 1.140625 -8.515625 C 1.273438 -8.648438 1.460938 -8.71875 1.703125 -8.71875 L 4.765625 -8.71875 C 5.671875 -8.71875 6.378906 -8.515625 6.890625 -8.109375 C 7.410156 -7.710938 7.671875 -7.15625 7.671875 -6.4375 C 7.671875 -5.976562 7.550781 -5.578125 7.3125 -5.234375 C 7.070312 -4.898438 6.734375 -4.65625 6.296875 -4.5 Z M 2.5 -5.046875 L 4.515625 -5.046875 C 5.609375 -5.046875 6.15625 -5.453125 6.15625 -6.265625 C 6.15625 -6.679688 6.019531 -6.988281 5.75 -7.1875 C 5.476562 -7.382812 5.066406 -7.484375 4.515625 -7.484375 L 2.5 -7.484375 Z M 4.71875 -1.234375 C 5.300781 -1.234375 5.722656 -1.335938 5.984375 -1.546875 C 6.242188 -1.753906 6.375 -2.078125 6.375 -2.515625 C 6.375 -2.941406 6.238281 -3.265625 5.96875 -3.484375 C 5.707031 -3.703125 5.289062 -3.8125 4.71875 -3.8125 L 2.5 -3.8125 L 2.5 -1.234375 Z M 4.71875 -1.234375"/></g><g id="l"><path d="M 6.375 -8.5 C 6.519531 -8.6875 6.695312 -8.78125 6.90625 -8.78125 C 7.09375 -8.78125 7.257812 -8.707031 7.40625 -8.5625 C 7.5625 -8.414062 7.640625 -8.242188 7.640625 -8.046875 C 7.640625 -7.878906 7.578125 -7.722656 7.453125 -7.578125 L 4.640625 -4.15625 L 4.640625 -0.734375 C 4.640625 -0.472656 4.566406 -0.269531 4.421875 -0.125 C 4.273438 0.0078125 4.085938 0.078125 3.859375 0.078125 C 3.617188 0.078125 3.421875 0.0078125 3.265625 -0.125 C 3.117188 -0.269531 3.046875 -0.472656 3.046875 -0.734375 L 3.046875 -4.15625 L 0.25 -7.578125 C 0.125 -7.722656 0.0625 -7.878906 0.0625 -8.046875 C 0.0625 -8.242188 0.132812 -8.414062 0.28125 -8.5625 C 0.425781 -8.707031 0.597656 -8.78125 0.796875 -8.78125 C 0.992188 -8.78125 1.171875 -8.6875 1.328125 -8.5 L 3.859375 -5.359375 Z M 6.375 -8.5"/></g><g id="n"><path d="M 0.78125 0.078125 C 0.144531 0.0976562 -0.171875 -0.117188 -0.171875 -0.578125 C -0.171875 -0.773438 -0.117188 -0.925781 -0.015625 -1.03125 C 0.0859375 -1.132812 0.25 -1.195312 0.46875 -1.21875 L 0.859375 -1.234375 C 1.203125 -1.253906 1.457031 -1.363281 1.625 -1.5625 C 1.800781 -1.757812 1.890625 -2.054688 1.890625 -2.453125 L 1.890625 -7.984375 C 1.890625 -8.222656 1.960938 -8.414062 2.109375 -8.5625 C 2.253906 -8.707031 2.445312 -8.78125 2.6875 -8.78125 C 2.925781 -8.78125 3.117188 -8.707031 3.265625 -8.5625 C 3.410156 -8.414062 3.484375 -8.222656 3.484375 -7.984375 L 3.484375 -2.453125 C 3.484375 -0.898438 2.710938 -0.0664062 1.171875 0.046875 Z M 0.78125 0.078125"/></g><g id="o"><path d="M 4.53125 0.109375 C 3.34375 0.109375 2.4375 -0.195312 1.8125 -0.8125 C 1.195312 -1.4375 0.890625 -2.335938 0.890625 -3.515625 L 0.890625 -7.984375 C 0.890625 -8.222656 0.957031 -8.414062 1.09375 -8.5625 C 1.238281 -8.707031 1.429688 -8.78125 1.671875 -8.78125 C 1.910156 -8.78125 2.097656 -8.707031 2.234375 -8.5625 C 2.378906 -8.414062 2.453125 -8.222656 2.453125 -7.984375 L 2.453125 -3.4375 C 2.453125 -2.6875 2.628906 -2.117188 2.984375 -1.734375 C 3.335938 -1.347656 3.851562 -1.15625 4.53125 -1.15625 C 5.207031 -1.15625 5.722656 -1.347656 6.078125 -1.734375 C 6.429688 -2.128906 6.609375 -2.695312 6.609375 -3.4375 L 6.609375 -7.984375 C 6.609375 -8.222656 6.675781 -8.414062 6.8125 -8.5625 C 6.957031 -8.707031 7.148438 -8.78125 7.390625 -8.78125 C 7.628906 -8.78125 7.816406 -8.707031 7.953125 -8.5625 C 8.097656 -8.414062 8.171875 -8.222656 8.171875 -7.984375 L 8.171875 -3.515625 C 8.171875 -2.335938 7.859375 -1.4375 7.234375 -0.8125 C 6.617188 -0.195312 5.71875 0.109375 4.53125 0.109375 Z M 4.53125 0.109375"/></g><g id="p"><path d="M 1.6875 0 C 1.445312 0 1.257812 -0.0625 1.125 -0.1875 C 1 -0.320312 0.9375 -0.503906 0.9375 -0.734375 L 0.9375 -7.984375 C 0.9375 -8.222656 1.007812 -8.414062 1.15625 -8.5625 C 1.300781 -8.707031 1.492188 -8.78125 1.734375 -8.78125 C 1.972656 -8.78125 2.164062 -8.707031 2.3125 -8.5625 C 2.457031 -8.414062 2.53125 -8.222656 2.53125 -7.984375 L 2.53125 -1.3125 L 6 -1.3125 C 6.5 -1.3125 6.75 -1.09375 6.75 -0.65625 C 6.75 -0.21875 6.5 0 6 0 Z M 1.6875 0"/></g><g id="q"><path d="M 1.703125 0 C 1.460938 0 1.273438 -0.0625 1.140625 -0.1875 C 1.003906 -0.320312 0.9375 -0.507812 0.9375 -0.75 L 0.9375 -7.953125 C 0.9375 -8.191406 1.003906 -8.378906 1.140625 -8.515625 C 1.273438 -8.648438 1.460938 -8.71875 1.703125 -8.71875 L 6.171875 -8.71875 C 6.410156 -8.71875 6.59375 -8.660156 6.71875 -8.546875 C 6.851562 -8.441406 6.921875 -8.289062 6.921875 -8.09375 C 6.921875 -7.882812 6.851562 -7.722656 6.71875 -7.609375 C 6.59375 -7.503906 6.410156 -7.453125 6.171875 -7.453125 L 2.5 -7.453125 L 2.5 -5.0625 L 5.921875 -5.0625 C 6.160156 -5.0625 6.34375 -5.003906 6.46875 -4.890625 C 6.601562 -4.785156 6.671875 -4.628906 6.671875 -4.421875 C 6.671875 -4.222656 6.601562 -4.070312 6.46875 -3.96875 C 6.34375 -3.863281 6.160156 -3.8125 5.921875 -3.8125 L 2.5 -3.8125 L 2.5 -1.265625 L 6.171875 -1.265625 C 6.410156 -1.265625 6.59375 -1.207031 6.71875 -1.09375 C 6.851562 -0.976562 6.921875 -0.820312 6.921875 -0.625 C 6.921875 -0.425781 6.851562 -0.269531 6.71875 -0.15625 C 6.59375 -0.0507812 6.410156 0 6.171875 0 Z M 1.703125 0"/></g><g id="r"><path d="M 3.953125 0.109375 C 3.316406 0.109375 2.71875 0.0234375 2.15625 -0.140625 C 1.59375 -0.304688 1.132812 -0.535156 0.78125 -0.828125 C 0.59375 -0.960938 0.5 -1.160156 0.5 -1.421875 C 0.5 -1.597656 0.546875 -1.75 0.640625 -1.875 C 0.742188 -2 0.867188 -2.0625 1.015625 -2.0625 C 1.160156 -2.0625 1.328125 -2.003906 1.515625 -1.890625 C 1.867188 -1.640625 2.238281 -1.453125 2.625 -1.328125 C 3.019531 -1.210938 3.453125 -1.15625 3.921875 -1.15625 C 4.515625 -1.15625 4.972656 -1.257812 5.296875 -1.46875 C 5.617188 -1.6875 5.78125 -1.992188 5.78125 -2.390625 C 5.78125 -2.710938 5.628906 -2.957031 5.328125 -3.125 C 5.023438 -3.289062 4.523438 -3.453125 3.828125 -3.609375 C 3.109375 -3.765625 2.519531 -3.945312 2.0625 -4.15625 C 1.613281 -4.363281 1.269531 -4.625 1.03125 -4.9375 C 0.800781 -5.257812 0.6875 -5.671875 0.6875 -6.171875 C 0.6875 -6.679688 0.832031 -7.132812 1.125 -7.53125 C 1.414062 -7.9375 1.816406 -8.253906 2.328125 -8.484375 C 2.847656 -8.710938 3.425781 -8.828125 4.0625 -8.828125 C 5.238281 -8.828125 6.203125 -8.515625 6.953125 -7.890625 C 7.054688 -7.796875 7.128906 -7.703125 7.171875 -7.609375 C 7.222656 -7.523438 7.25 -7.421875 7.25 -7.296875 C 7.25 -7.117188 7.195312 -6.96875 7.09375 -6.84375 C 6.988281 -6.71875 6.863281 -6.65625 6.71875 -6.65625 C 6.632812 -6.65625 6.554688 -6.664062 6.484375 -6.6875 C 6.421875 -6.707031 6.332031 -6.753906 6.21875 -6.828125 C 5.875 -7.066406 5.546875 -7.242188 5.234375 -7.359375 C 4.921875 -7.484375 4.53125 -7.546875 4.0625 -7.546875 C 3.5 -7.546875 3.054688 -7.429688 2.734375 -7.203125 C 2.410156 -6.984375 2.25 -6.671875 2.25 -6.265625 C 2.25 -5.929688 2.390625 -5.671875 2.671875 -5.484375 C 2.960938 -5.304688 3.457031 -5.140625 4.15625 -4.984375 C 4.882812 -4.816406 5.476562 -4.628906 5.9375 -4.421875 C 6.394531 -4.222656 6.742188 -3.96875 6.984375 -3.65625 C 7.234375 -3.34375 7.359375 -2.953125 7.359375 -2.484375 C 7.359375 -1.972656 7.210938 -1.519531 6.921875 -1.125 C 6.640625 -0.738281 6.238281 -0.4375 5.71875 -0.21875 C 5.207031 0 4.617188 0.109375 3.953125 0.109375 Z M 3.953125 0.109375"/></g><g id="s"><path d="M 8.84375 -0.953125 C 8.882812 -0.847656 8.90625 -0.738281 8.90625 -0.625 C 8.90625 -0.4375 8.828125 -0.273438 8.671875 -0.140625 C 8.523438 -0.015625 8.351562 0.046875 8.15625 0.046875 C 8.019531 0.046875 7.894531 0.015625 7.78125 -0.046875 C 7.664062 -0.117188 7.578125 -0.234375 7.515625 -0.390625 L 6.765625 -2.046875 L 2.421875 -2.046875 L 1.6875 -0.390625 C 1.613281 -0.234375 1.519531 -0.117188 1.40625 -0.046875 C 1.289062 0.015625 1.164062 0.046875 1.03125 0.046875 C 0.832031 0.046875 0.65625 -0.015625 0.5 -0.140625 C 0.34375 -0.273438 0.265625 -0.4375 0.265625 -0.625 C 0.265625 -0.738281 0.289062 -0.847656 0.34375 -0.953125 L 3.75 -8.28125 C 3.832031 -8.445312 3.945312 -8.570312 4.09375 -8.65625 C 4.25 -8.738281 4.410156 -8.78125 4.578125 -8.78125 C 4.753906 -8.78125 4.914062 -8.738281 5.0625 -8.65625 C 5.21875 -8.570312 5.332031 -8.445312 5.40625 -8.28125 Z M 2.96875 -3.28125 L 6.234375 -3.28125 L 4.59375 -6.953125 Z M 2.96875 -3.28125"/></g><g id="t"><path d="M 7.546875 -8.78125 C 7.773438 -8.78125 7.957031 -8.707031 8.09375 -8.5625 C 8.226562 -8.414062 8.296875 -8.222656 8.296875 -7.984375 L 8.296875 -0.734375 C 8.296875 -0.492188 8.222656 -0.296875 8.078125 -0.140625 C 7.941406 0.00390625 7.765625 0.078125 7.546875 0.078125 C 7.273438 0.078125 7.070312 -0.015625 6.9375 -0.203125 L 2.421875 -6.078125 L 2.421875 -0.734375 C 2.421875 -0.492188 2.351562 -0.296875 2.21875 -0.140625 C 2.09375 0.00390625 1.914062 0.078125 1.6875 0.078125 C 1.445312 0.078125 1.257812 0.00390625 1.125 -0.140625 C 1 -0.296875 0.9375 -0.492188 0.9375 -0.734375 L 0.9375 -7.984375 C 0.9375 -8.222656 1.003906 -8.414062 1.140625 -8.5625 C 1.285156 -8.707031 1.472656 -8.78125 1.703125 -8.78125 C 1.960938 -8.78125 2.160156 -8.679688 2.296875 -8.484375 L 6.796875 -2.640625 L 6.796875 -7.984375 C 6.796875 -8.222656 6.863281 -8.414062 7 -8.5625 C 7.132812 -8.707031 7.316406 -8.78125 7.546875 -8.78125 Z M 7.546875 -8.78125"/></g><g id="u"><path d="M 1.703125 0 C 1.460938 0 1.273438 -0.0625 1.140625 -0.1875 C 1.003906 -0.320312 0.9375 -0.507812 0.9375 -0.75 L 0.9375 -7.953125 C 0.9375 -8.191406 1.003906 -8.378906 1.140625 -8.515625 C 1.273438 -8.648438 1.460938 -8.71875 1.703125 -8.71875 L 4.15625 -8.71875 C 5.582031 -8.71875 6.6875 -8.332031 7.46875 -7.5625 C 8.257812 -6.800781 8.65625 -5.734375 8.65625 -4.359375 C 8.65625 -2.972656 8.257812 -1.898438 7.46875 -1.140625 C 6.6875 -0.378906 5.582031 0 4.15625 0 Z M 4.046875 -1.296875 C 6.054688 -1.296875 7.0625 -2.316406 7.0625 -4.359375 C 7.0625 -6.398438 6.054688 -7.421875 4.046875 -7.421875 L 2.53125 -7.421875 L 2.53125 -1.296875 Z M 4.046875 -1.296875"/></g><g id="v"><path d="M 1.734375 0.078125 C 1.492188 0.078125 1.300781 0.00390625 1.15625 -0.140625 C 1.007812 -0.296875 0.9375 -0.492188 0.9375 -0.734375 L 0.9375 -7.984375 C 0.9375 -8.222656 1.007812 -8.414062 1.15625 -8.5625 C 1.300781 -8.707031 1.492188 -8.78125 1.734375 -8.78125 C 1.972656 -8.78125 2.164062 -8.707031 2.3125 -8.5625 C 2.457031 -8.414062 2.53125 -8.222656 2.53125 -7.984375 L 2.53125 -0.734375 C 2.53125 -0.492188 2.457031 -0.296875 2.3125 -0.140625 C 2.164062 0.00390625 1.972656 0.078125 1.734375 0.078125 Z M 1.734375 0.078125"/></g><clipPath id="a"><path d="M 6.863281 110.503906 L 163.613281 110.503906 L 163.613281 246.253906 L 6.863281 246.253906 Z M 6.863281 110.503906"/></clipPath><clipPath id="b"><path d="M 40.101562 133.210938 L 130.101562 133.210938 L 130.101562 223.210938 L 40.101562 223.210938 Z M 40.101562 133.210938"/></clipPath></defs><g clip-path="url(#a)"><path fill="#008037" d="M 163.546875 178.378906 L 124.386719 246.253906 L 46.09375 246.253906 L 6.933594 178.378906 L 46.09375 110.503906 L 124.386719 110.503906 Z M 163.546875 178.378906"/></g><path fill="#7ED957" d="M 46.234375 236.125 L 15.773438 183.320312 C 14.011719 180.277344 14.011719 176.511719 15.773438 173.433594 L 46.234375 120.628906 C 47.996094 117.585938 51.242188 115.6875 54.796875 115.6875 L 115.714844 115.6875 C 119.238281 115.6875 122.484375 117.550781 124.28125 120.628906 L 154.742188 173.433594 C 156.5 176.476562 156.5 180.242188 154.742188 183.320312 L 124.28125 236.125 C 122.519531 239.167969 119.273438 241.070312 115.714844 241.070312 L 54.761719 241.070312 C 51.242188 241.070312 47.996094 239.167969 46.234375 236.125 Z M 46.234375 236.125"/><path fill="#7ED957" d="M 153.082031 174.402344 L 122.589844 121.597656 C 121.171875 119.140625 118.515625 117.621094 115.683594 117.621094 L 54.761719 117.621094 C 51.929688 117.621094 49.273438 119.140625 47.855469 121.597656 L 17.398438 174.402344 C 16.671875 175.648438 16.328125 177.03125 16.328125 178.378906 C 16.328125 179.726562 16.671875 181.140625 17.398438 182.351562 L 47.855469 235.160156 C 49.273438 237.613281 51.929688 239.132812 54.761719 239.132812 L 115.683594 239.132812 C 118.515625 239.132812 121.171875 237.613281 122.589844 235.160156 L 153.082031 182.351562 C 153.773438 181.140625 154.117188 179.761719 154.117188 178.378906 C 154.117188 176.996094 153.773438 175.613281 153.082031 174.402344 Z M 152.773438 182.179688 L 122.3125 234.984375 C 120.964844 237.335938 118.410156 238.789062 115.714844 238.789062 L 54.761719 238.789062 C 52.035156 238.789062 49.515625 237.335938 48.167969 234.984375 L 17.707031 182.179688 C 17.015625 181.003906 16.707031 179.691406 16.707031 178.378906 C 16.707031 177.0625 17.050781 175.75 17.707031 174.574219 L 48.167969 121.769531 C 49.515625 119.417969 52.070312 117.96875 54.761719 117.96875 L 115.683594 117.96875 C 118.410156 117.96875 120.929688 119.417969 122.277344 121.769531 L 152.773438 174.574219 C 153.460938 175.75 153.773438 177.0625 153.773438 178.378906 C 153.773438 179.691406 153.429688 181.003906 152.773438 182.179688 Z M 152.773438 182.179688"/><g clip-path="url(#b)"><path d="M 98.601562 157.960938 L 98.601562 133.210938 L 71.601562 133.210938 L 71.601562 157.960938 L 85.101562 171.460938 Z M 64.851562 164.710938 L 40.101562 164.710938 L 40.101562 191.710938 L 64.851562 191.710938 L 78.351562 178.210938 Z M 71.601562 198.460938 L 71.601562 223.210938 L 98.601562 223.210938 L 98.601562 198.460938 L 85.101562 184.960938 Z M 105.351562 164.710938 L 91.851562 178.210938 L 105.351562 191.710938 L 130.101562 191.710938 L 130.101562 164.710938 Z M 105.351562 164.710938"/></g><g><use x="170.271" y="173.15" xmlns:xlink="http://www.w3.org/1999/xlink" xlink:href="#c" xlink:type="simple" xlink:actuate="onLoad" xlink:show="embed"/></g><g><use x="214.495" y="173.15" xmlns:xlink="http://www.w3.org/1999/xlink" xlink:href="#d" xlink:type="simple" xlink:actuate="onLoad" xlink:show="embed"/></g><g><use x="258.719" y="173.15" xmlns:xlink="http://www.w3.org/1999/xlink" xlink:href="#e" xlink:type="simple" xlink:actuate="onLoad" xlink:show="embed"/></g><g><use x="302.944" y="173.15" xmlns:xlink="http://www.w3.org/1999/xlink" xlink:href="#f" xlink:type="simple" xlink:actuate="onLoad" xlink:show="embed"/></g><g><use x="170.271" y="212.833" xmlns:xlink="http://www.w3.org/1999/xlink" xlink:href="#g" xlink:type="simple" xlink:actuate="onLoad" xlink:show="embed"/></g><g><use x="214.495" y="212.833" xmlns:xlink="http://www.w3.org/1999/xlink" xlink:href="#h" xlink:type="simple" xlink:actuate="onLoad" xlink:show="embed"/></g><g><use x="258.719" y="212.833" xmlns:xlink="http://www.w3.org/1999/xlink" xlink:href="#i" xlink:type="simple" xlink:actuate="onLoad" xlink:show="embed"/></g><g><use x="302.944" y="212.833" xmlns:xlink="http://www.w3.org/1999/xlink" xlink:href="#j" xlink:type="simple" xlink:actuate="onLoad" xlink:show="embed"/></g><g fill="#008037"><use x="170.271" y="230.122" xmlns:xlink="http://www.w3.org/1999/xlink" xlink:href="#k" xlink:type="simple" xlink:actuate="onLoad" xlink:show="embed"/></g><g fill="#008037"><use x="180.32" y="230.122" xmlns:xlink="http://www.w3.org/1999/xlink" xlink:href="#l" xlink:type="simple" xlink:actuate="onLoad" xlink:show="embed"/></g><g fill="#008037"><use x="189.628" y="230.122" xmlns:xlink="http://www.w3.org/1999/xlink" xlink:href="#m" xlink:type="simple" xlink:actuate="onLoad" xlink:show="embed"/></g><g fill="#008037"><use x="194.585" y="230.122" xmlns:xlink="http://www.w3.org/1999/xlink" xlink:href="#n" xlink:type="simple" xlink:actuate="onLoad" xlink:show="embed"/></g><g fill="#008037"><use x="200.617" y="230.122" xmlns:xlink="http://www.w3.org/1999/xlink" xlink:href="#o" xlink:type="simple" xlink:actuate="onLoad" xlink:show="embed"/></g><g fill="#008037"><use x="211.285" y="230.122" xmlns:xlink="http://www.w3.org/1999/xlink" xlink:href="#p" xlink:type="simple" xlink:actuate="onLoad" xlink:show="embed"/></g><g fill="#008037"><use x="219.752" y="230.122" xmlns:xlink="http://www.w3.org/1999/xlink" xlink:href="#q" xlink:type="simple" xlink:actuate="onLoad" xlink:show="embed"/></g><g fill="#008037"><use x="228.64" y="230.122" xmlns:xlink="http://www.w3.org/1999/xlink" xlink:href="#r" xlink:type="simple" xlink:actuate="onLoad" xlink:show="embed"/></g><g fill="#008037"><use x="238.133" y="230.122" xmlns:xlink="http://www.w3.org/1999/xlink" xlink:href="#m" xlink:type="simple" xlink:actuate="onLoad" xlink:show="embed"/></g><g fill="#008037"><use x="243.09" y="230.122" xmlns:xlink="http://www.w3.org/1999/xlink" xlink:href="#s" xlink:type="simple" xlink:actuate="onLoad" xlink:show="embed"/></g><g fill="#008037"><use x="253.869" y="230.122" xmlns:xlink="http://www.w3.org/1999/xlink" xlink:href="#t" xlink:type="simple" xlink:actuate="onLoad" xlink:show="embed"/></g><g fill="#008037"><use x="264.709" y="230.122" xmlns:xlink="http://www.w3.org/1999/xlink" xlink:href="#u" xlink:type="simple" xlink:actuate="onLoad" xlink:show="embed"/></g><g fill="#008037"><use x="275.636" y="230.122" xmlns:xlink="http://www.w3.org/1999/xlink" xlink:href="#m" xlink:type="simple" xlink:actuate="onLoad" xlink:show="embed"/></g><g fill="#008037"><use x="280.593" y="230.122" xmlns:xlink="http://www.w3.org/1999/xlink" xlink:href="#l" xlink:type="simple" xlink:actuate="onLoad" xlink:show="embed"/></g><g fill="#008037"><use x="289.901" y="230.122" xmlns:xlink="http://www.w3.org/1999/xlink" xlink:href="#s" xlink:type="simple" xlink:actuate="onLoad" xlink:show="embed"/></g><g fill="#008037"><use x="300.68" y="230.122" xmlns:xlink="http://www.w3.org/1999/xlink" xlink:href="#r" xlink:type="simple" xlink:actuate="onLoad" xlink:show="embed"/></g><g fill="#008037"><use x="310.173" y="230.122" xmlns:xlink="http://www.w3.org/1999/xlink" xlink:href="#r" xlink:type="simple" xlink:actuate="onLoad" xlink:show="embed"/></g><g fill="#008037"><use x="319.667" y="230.122" xmlns:xlink="http://www.w3.org/1999/xlink" xlink:href="#v" xlink:type="simple" xlink:actuate="onLoad" xlink:show="embed"/></g><g fill="#008037"><use x="324.747" y="230.122" xmlns:xlink="http://www.w3.org/1999/xlink" xlink:href="#t" xlink:type="simple" xlink:actuate="onLoad" xlink:show="embed"/></g><g fill="#008037"><use x="335.588" y="230.122" xmlns:xlink="http://www.w3.org/1999/xlink" xlink:href="#q" xlink:type="simple" xlink:actuate="onLoad" xlink:show="embed"/></g></svg>